<?xml version="1.0" encoding="UTF-8" standalone="no"?>
<!-- Created with Inkscape (http://www.inkscape.org/) -->

<svg
   xmlns:dc="http://purl.org/dc/elements/1.1/"
   xmlns:cc="http://creativecommons.org/ns#"
   xmlns:rdf="http://www.w3.org/1999/02/22-rdf-syntax-ns#"
   xmlns:svg="http://www.w3.org/2000/svg"
   xmlns="http://www.w3.org/2000/svg"
   xmlns:sodipodi="http://sodipodi.sourceforge.net/DTD/sodipodi-0.dtd"
   xmlns:inkscape="http://www.inkscape.org/namespaces/inkscape"
   width="3.96875mm"
   height="3.96875mm"
   viewBox="0 0 3.9687501 3.9687501"
   version="1.1"
   id="svg940"
   inkscape:version="0.92.5 (2060ec1f9f, 2020-04-08)"
   sodipodi:docname="H.svg">
  <defs
     id="defs934" />
  <sodipodi:namedview
     id="base"
     pagecolor="#ffffff"
     bordercolor="#666666"
     borderopacity="1.0"
     inkscape:pageopacity="0.0"
     inkscape:pageshadow="2"
     inkscape:zoom="3.959798"
     inkscape:cx="21.543269"
     inkscape:cy="50.119636"
     inkscape:document-units="mm"
     inkscape:current-layer="layer1"
     showgrid="false"
     inkscape:window-width="1920"
     inkscape:window-height="1017"
     inkscape:window-x="-8"
     inkscape:window-y="-8"
     inkscape:window-maximized="1"
     showguides="true"
     inkscape:guide-bbox="true" />
  <metadata
     id="metadata937">
    <rdf:RDF>
      <cc:Work
         rdf:about="">
        <dc:format>image/svg+xml</dc:format>
        <dc:type
           rdf:resource="http://purl.org/dc/dcmitype/StillImage" />
        <dc:title></dc:title>
      </cc:Work>
    </rdf:RDF>
  </metadata>
  <g
     inkscape:label="Layer 1"
     inkscape:groupmode="layer"
     id="layer1"
     transform="translate(-40.377031,-95.292828)">
    <path
       style="font-style:normal;font-variant:normal;font-weight:bold;font-stretch:normal;font-size:10.58333302px;line-height:1.25;font-family:OPTIEdgarBold-Extended;-inkscape-font-specification:'OPTIEdgarBold-Extended Bold';letter-spacing:0px;word-spacing:0px;fill:#ffffff;fill-opacity:1;stroke-width:0.04383089"
       d="m 42.361406,95.292828 c -1.092994,0 -1.984375,0.891382 -1.984375,1.984375 0,1.092994 0.891381,1.984375 1.984375,1.984375 1.092993,0 1.984375,-0.891381 1.984375,-1.984375 0,-1.092993 -0.891382,-1.984375 -1.984375,-1.984375 z m 0,0.49695 c 0.824405,0 1.487339,0.66302 1.487339,1.487425 0,0.824406 -0.662934,1.48734 -1.487339,1.48734 -0.824406,0 -1.487425,-0.662934 -1.487425,-1.48734 0,-0.824405 0.663019,-1.487425 1.487425,-1.487425 z m -0.873964,0.781851 v 1.411405 h 0.427779 v -0.5365 h 0.892369 v 0.5365 h 0.42778 v -1.411405 h -0.42778 v 0.506708 h -0.892369 v -0.506708 z"
       id="path1586"
       inkscape:connector-curvature="0" />
  </g>
</svg>
