<?xml version="1.0" encoding="UTF-8" standalone="no"?>
<!-- Created with Inkscape (http://www.inkscape.org/) -->

<svg
   xmlns:dc="http://purl.org/dc/elements/1.1/"
   xmlns:cc="http://creativecommons.org/ns#"
   xmlns:rdf="http://www.w3.org/1999/02/22-rdf-syntax-ns#"
   xmlns:svg="http://www.w3.org/2000/svg"
   xmlns="http://www.w3.org/2000/svg"
   xmlns:sodipodi="http://sodipodi.sourceforge.net/DTD/sodipodi-0.dtd"
   xmlns:inkscape="http://www.inkscape.org/namespaces/inkscape"
   width="3.96875mm"
   height="3.96875mm"
   viewBox="0 0 3.96875 3.96875"
   version="1.1"
   id="svg940"
   inkscape:version="0.92.5 (2060ec1f9f, 2020-04-08)"
   sodipodi:docname="S.svg">
  <defs
     id="defs934" />
  <sodipodi:namedview
     id="base"
     pagecolor="#ffffff"
     bordercolor="#666666"
     borderopacity="1.0"
     inkscape:pageopacity="0.0"
     inkscape:pageshadow="2"
     inkscape:zoom="3.959798"
     inkscape:cx="26.498226"
     inkscape:cy="-61.513742"
     inkscape:document-units="mm"
     inkscape:current-layer="layer1"
     showgrid="false"
     inkscape:window-width="1920"
     inkscape:window-height="1017"
     inkscape:window-x="-8"
     inkscape:window-y="-8"
     inkscape:window-maximized="1" />
  <metadata
     id="metadata937">
    <rdf:RDF>
      <cc:Work
         rdf:about="">
        <dc:format>image/svg+xml</dc:format>
        <dc:type
           rdf:resource="http://purl.org/dc/dcmitype/StillImage" />
        <dc:title></dc:title>
      </cc:Work>
    </rdf:RDF>
  </metadata>
  <g
     inkscape:label="Layer 1"
     inkscape:groupmode="layer"
     id="layer1"
     transform="translate(-53.033203,-56.112268)">
    <g
       id="g1509"
       transform="matrix(0.16566118,0,0,0.16566118,44.24766,46.840419)">
      <g
         id="text817"
         style="font-weight:800;font-size:10.58333302px;line-height:1.25;font-family:Gilroy;-inkscape-font-specification:'Gilroy Ultra-Bold';letter-spacing:0px;word-spacing:0px;fill:#ffffff;fill-opacity:1;stroke-width:0.26458332"
         aria-label="S">
        <path
           id="path1500"
           style="font-style:normal;font-variant:normal;font-weight:bold;font-stretch:normal;font-family:OPTIEdgarBold-Extended;-inkscape-font-specification:'OPTIEdgarBold-Extended Bold';fill:#ffffff;fill-opacity:1;stroke-width:0.26458332"
           d="m 69.973927,66.629874 c 0,-0.433917 0.03175,-1.576916 -0.264583,-2.010833 -0.518584,-0.804333 -1.534584,-0.931333 -2.2225,-0.931333 h -4.402667 c -1.195916,0 -2.434166,-0.09525 -3.07975,0.98425 -0.391583,0.66675 -0.391583,2.465916 -0.03175,3.132666 0.529167,1.016 1.915584,0.994833 2.741084,1.005417 l 3.365499,0.07408 c 0.73025,0.02117 1.397,-0.03175 1.566334,0.3175 0.105833,0.232833 0.105833,0.518583 0,0.656167 -0.232834,0.28575 -0.98425,0.264583 -1.344084,0.264583 h -3.026833 c -0.486833,0 -0.941916,0.0635 -1.005416,-0.719667 h -2.550584 c -0.01058,0.560917 0.02117,1.471084 0.296334,1.894417 0.5715,0.836083 1.725083,0.910167 2.233083,0.910167 h 4.2545 c 0.878416,0 2.815166,-0.01058 3.471333,-1.100667 0.423333,-0.687917 0.455083,-2.233083 0.09525,-2.910417 -0.592667,-1.090083 -2.2225,-0.9525 -3.005667,-0.98425 l -3.164416,-0.07408 c -0.529167,0 -1.291167,0.03175 -1.534583,-0.34925 -0.07408,-0.137583 -0.09525,-0.497417 -0.01058,-0.635 0.232834,-0.4445 0.762,-0.381 1.121834,-0.381 h 2.889249 c 0.6985,0.01058 1.016,0.09525 1.0795,0.85725 z"
           inkscape:connector-curvature="0" />
      </g>
      <path
         inkscape:connector-curvature="0"
         id="circle839"
         d="m 65.011719,55.96875 c -6.59781,-10e-7 -11.978516,5.380706 -11.978516,11.978516 -10e-7,6.59781 5.380705,11.978516 11.978516,11.978515 6.59781,0 11.978516,-5.380705 11.978515,-11.978515 0,-6.59781 -5.380706,-11.978516 -11.978515,-11.978516 z m 0,3 c 4.976489,0 8.978515,4.002026 8.978515,8.978516 10e-7,4.976489 -4.002026,8.978515 -8.978515,8.978515 -4.97649,10e-7 -8.978516,-4.002025 -8.978516,-8.978515 0,-4.97649 4.002026,-8.978516 8.978516,-8.978516 z"
         style="color:#000000;font-style:normal;font-variant:normal;font-weight:normal;font-stretch:normal;font-size:medium;line-height:normal;font-family:sans-serif;font-variant-ligatures:normal;font-variant-position:normal;font-variant-caps:normal;font-variant-numeric:normal;font-variant-alternates:normal;font-feature-settings:normal;text-indent:0;text-align:start;text-decoration:none;text-decoration-line:none;text-decoration-style:solid;text-decoration-color:#000000;letter-spacing:normal;word-spacing:normal;text-transform:none;writing-mode:lr-tb;direction:ltr;text-orientation:mixed;dominant-baseline:auto;baseline-shift:baseline;text-anchor:start;white-space:normal;shape-padding:0;clip-rule:nonzero;display:inline;overflow:visible;visibility:visible;opacity:1;isolation:auto;mix-blend-mode:normal;color-interpolation:sRGB;color-interpolation-filters:linearRGB;solid-color:#000000;solid-opacity:1;vector-effect:none;fill:#ff3434;fill-opacity:1;fill-rule:nonzero;stroke:none;stroke-width:3;stroke-linecap:round;stroke-linejoin:miter;stroke-miterlimit:4;stroke-dasharray:none;stroke-dashoffset:0;stroke-opacity:1;paint-order:fill markers stroke;color-rendering:auto;image-rendering:auto;shape-rendering:auto;text-rendering:auto;enable-background:accumulate" />
    </g>
  </g>
</svg>
