<?xml version="1.0" encoding="UTF-8" standalone="no"?>
<svg
   xmlns:dc="http://purl.org/dc/elements/1.1/"
   xmlns:cc="http://creativecommons.org/ns#"
   xmlns:rdf="http://www.w3.org/1999/02/22-rdf-syntax-ns#"
   xmlns:svg="http://www.w3.org/2000/svg"
   xmlns="http://www.w3.org/2000/svg"
   xmlns:sodipodi="http://sodipodi.sourceforge.net/DTD/sodipodi-0.dtd"
   xmlns:inkscape="http://www.inkscape.org/namespaces/inkscape"
   sodipodi:docname="icon.svg"
   inkscape:version="1.0 (4035a4fb49, 2020-05-01)"
   id="svg1910"
   version="1.1"
   viewBox="0 0 6.5662551 6.5662651"
   height="6.5662651mm"
   width="6.5662551mm">
  <defs
     id="defs1904" />
  <sodipodi:namedview
     inkscape:window-maximized="1"
     inkscape:window-y="-8"
     inkscape:window-x="-8"
     inkscape:window-height="1017"
     inkscape:window-width="1920"
     showgrid="false"
     inkscape:document-rotation="0"
     inkscape:current-layer="layer1"
     inkscape:document-units="mm"
     inkscape:cy="11.428712"
     inkscape:cx="50.637952"
     inkscape:zoom="7.9195959"
     inkscape:pageshadow="2"
     inkscape:pageopacity="0.0"
     borderopacity="1.0"
     bordercolor="#666666"
     pagecolor="#ffffff"
     id="base" />
  <metadata
     id="metadata1907">
    <rdf:RDF>
      <cc:Work
         rdf:about="">
        <dc:format>image/svg+xml</dc:format>
        <dc:type
           rdf:resource="http://purl.org/dc/dcmitype/StillImage" />
        <dc:title></dc:title>
      </cc:Work>
    </rdf:RDF>
  </metadata>
  <g
     transform="translate(62.247413,27.473609)"
     id="layer1"
     inkscape:groupmode="layer"
     inkscape:label="Layer 1">
    <path
       id="path1309"
       style="fill:#ff135d;fill-opacity:1;stroke:none;stroke-width:4.79585;stroke-linecap:round;paint-order:fill markers stroke"
       d="m -60.680073,-27.473609 c -0.862015,0 -1.56734,0.70636 -1.56734,1.56838 v 3.430535 c 0,0.862025 0.705325,1.56735 1.56734,1.56735 h 3.430545 c 0.862015,0 1.56837,-0.705325 1.56837,-1.56735 v -3.430535 c 0,-0.86201 -0.706355,-1.56838 -1.56837,-1.56838 z m 0,0.75008 h 3.430545 c 0.459489,0 0.818555,0.358815 0.818555,0.8183 v 3.430536 c 0,0.459499 -0.359066,0.817525 -0.818555,0.817525 h -3.430545 c -0.45949,0 -0.817526,-0.358035 -0.817526,-0.817525 v -3.430535 c 0,-0.45948 0.35805,-0.8183 0.817526,-0.818301 z m 0.300765,0.76404 c -0.005,6.5e-5 -0.0087,3.05e-4 -0.0129,5e-4 -0.005,1.99e-4 -0.0087,4.5e-4 -0.0129,10e-4 -0.005,4.24e-4 -0.0091,0.001 -0.01345,0.0015 -0.004,4.24e-4 -0.0085,0.001 -0.0129,0.0015 -0.005,0.001 -0.0087,0.0015 -0.0129,0.0025 -0.005,0.001 -0.0087,0.0015 -0.01295,0.0025 -0.004,10e-4 -0.0087,0.0015 -0.0129,0.003 -0.005,0.0015 -0.0087,0.0025 -0.0129,0.004 -0.004,0.0015 -0.0082,0.0025 -0.0124,0.004 -0.004,0.0015 -0.0087,0.003 -0.0129,0.0052 -0.004,0.0015 -0.0082,0.003 -0.0124,0.005 -0.004,0.0015 -0.0082,0.004 -0.0124,0.0057 -0.004,0.0015 -0.0079,0.003 -0.0119,0.0054 -0.004,0.0015 -0.0079,0.004 -0.0119,0.0054 -0.004,0.0015 -0.008,0.004 -0.01165,0.0065 -0.004,0.0025 -0.0078,0.0051 -0.01135,0.0072 -0.004,0.0025 -0.0072,0.005 -0.0111,0.007 -0.004,0.0025 -0.0072,0.0051 -0.0111,0.008 -0.003,0.0025 -0.0073,0.0056 -0.01085,0.0083 -0.003,0.0025 -0.0072,0.0053 -0.01035,0.008 -0.003,0.003 -0.0072,0.0057 -0.01035,0.0088 -0.003,0.003 -0.0062,0.0063 -0.0093,0.009 l -0.0095,0.0096 -0.0093,0.0093 c -0.003,0.003 -0.0057,0.0063 -0.0088,0.0098 -0.003,0.003 -0.0055,0.0073 -0.0085,0.01035 -0.0025,0.003 -0.0056,0.0071 -0.0082,0.0106 -0.0025,0.003 -0.0053,0.0071 -0.0078,0.0106 -0.0025,0.004 -0.0051,0.0072 -0.0072,0.0111 -0.0025,0.004 -0.0051,0.0071 -0.0072,0.0111 -0.0025,0.004 -0.005,0.0081 -0.0062,0.0116 -0.0025,0.004 -0.004,0.0079 -0.0065,0.0119 -0.0025,0.004 -0.004,0.0079 -0.0055,0.0119 -0.0025,0.004 -0.003,0.008 -0.0057,0.0119 -0.0025,0.004 -0.003,0.0081 -0.005,0.01215 -0.0025,0.004 -0.003,0.0084 -0.005,0.01265 -0.0025,0.004 -0.0025,0.0083 -0.004,0.0124 -0.0025,0.004 -0.0025,0.0084 -0.004,0.01265 -0.0025,0.004 -0.0025,0.0088 -0.003,0.0132 0,0.004 -0.0025,0.0084 -0.003,0.01265 0,0.005 -0.0025,0.0088 -0.0025,0.01315 0,0.005 -0.0025,0.0085 -0.0025,0.0129 0,0.005 -0.0025,0.0089 -0.0025,0.0132 0,0.005 -0.0025,0.0088 -0.0025,0.01315 -2.25e-4,0.005 0,0.0092 0,0.0137 -7e-5,0.005 -7e-5,0.0085 0,0.0129 -3e-5,0.0025 -3e-5,0.0051 0,0.0064 6.5e-5,0.005 2.12e-4,0.0085 0,0.0129 v 0.0132 c 0,0.005 -1.85e-4,0.0089 0.0025,0.0132 0,0.005 9e-5,0.0088 0.0025,0.0132 0,0.005 0.0025,0.0085 0.0025,0.0129 0,0.005 0.0025,0.0089 0.0025,0.0132 0,0.004 0.0025,0.0084 0.003,0.01265 0,0.004 0.0025,0.0084 0.003,0.01265 0.0025,0.005 0.0025,0.0089 0.004,0.0132 0.0025,0.004 0.0025,0.0084 0.004,0.0124 0.0025,0.004 0.003,0.0081 0.005,0.01215 0.0025,0.004 0.004,0.0084 0.0055,0.0124 0.0025,0.004 0.004,0.008 0.0057,0.0119 0.0025,0.004 0.005,0.0079 0.0062,0.0119 0.0025,0.004 0.004,0.0078 0.0065,0.01135 0.0025,0.004 0.0051,0.0081 0.0072,0.0116 0.0025,0.004 0.005,0.0072 0.007,0.0111 0.0025,0.004 0.005,0.0069 0.008,0.01085 0.0025,0.004 0.0056,0.0073 0.0082,0.01085 0.0025,0.003 0.0054,0.007 0.008,0.0101 0.0025,0.003 0.0054,0.0072 0.0085,0.01035 0.003,0.003 0.0055,0.0063 0.009,0.0098 0.003,0.003 0.0058,0.0064 0.0093,0.0095 0.003,0.003 0.0063,0.0063 0.0099,0.009 0.003,0.003 0.0063,0.0064 0.0098,0.0091 0.003,0.003 0.0064,0.0056 0.01035,0.0082 0.003,0.003 0.007,0.0053 0.0106,0.008 0.004,0.0025 0.007,0.0056 0.0106,0.008 0.004,0.0025 0.0073,0.0051 0.01085,0.0072 0.004,0.0025 0.0078,0.005 0.01135,0.007 0.004,0.0025 0.0081,0.0051 0.01165,0.0064 0.004,0.0025 0.0078,0.004 0.0114,0.0064 0.004,0.0015 0.0082,0.004 0.01215,0.0054 0.004,0.0015 0.0081,0.004 0.0124,0.0054 0.004,0.0015 0.0082,0.003 0.0124,0.0052 0.004,0.0015 0.0082,0.003 0.01265,0.005 0.004,0.0015 0.0081,0.003 0.0124,0.004 0.004,0.0015 0.0085,0.003 0.0129,0.004 0.005,0.0015 0.0087,0.0025 0.0129,0.003 0.004,0.001 0.0085,0.0015 0.0129,0.003 0.005,0.001 0.0087,0.0015 0.0129,0.0025 0.005,5e-4 0.0087,0.0015 0.0129,0.0015 0.005,5e-4 0.009,0.0015 0.01315,0.0015 0.005,5e-4 0.0087,0.0015 0.0129,0.0015 0.005,2.12e-4 0.0091,5e-4 0.01345,5e-4 0.005,1.99e-4 0.0087,5e-4 0.0129,5e-4 h 0.0065 2.80707 0.0062 c 0.005,-6.5e-5 0.0091,-3.04e-4 0.01345,-5e-4 0.005,-1.98e-4 0.009,-4.5e-4 0.0132,-0.001 0.005,-4.23e-4 0.0087,-10e-4 0.01295,-0.0015 0.005,-4.1e-4 0.0087,-10e-4 0.0129,-0.0015 0.005,-10e-4 0.0087,-0.0015 0.0129,-0.0025 0.005,-5e-4 0.0089,-0.0015 0.01315,-0.0025 0.004,-0.001 0.0082,-0.0025 0.01265,-0.003 0.005,-0.0015 0.0089,-0.0025 0.01315,-0.004 0.004,-0.0015 0.0082,-0.0025 0.0124,-0.004 0.004,-0.0015 0.0085,-0.0025 0.01265,-0.004 0.004,-0.0015 0.0082,-0.003 0.0124,-0.005 0.004,-0.0015 0.0082,-0.003 0.0124,-0.0057 0.004,-0.0015 0.0082,-0.004 0.01215,-0.0054 0.004,-0.0015 0.0079,-0.003 0.0119,-0.0057 0.004,-0.0025 0.008,-0.004 0.01165,-0.0062 0.004,-0.0025 0.0078,-0.0051 0.01135,-0.0072 0.004,-0.0025 0.0072,-0.0051 0.0111,-0.0073 0.004,-0.0025 0.0072,-0.005 0.0111,-0.0077 0.004,-0.0025 0.007,-0.0051 0.0106,-0.008 0.003,-0.003 0.0072,-0.0055 0.01035,-0.0085 0.003,-0.003 0.0072,-0.0057 0.01035,-0.0088 0.003,-0.003 0.0065,-0.0064 0.0096,-0.0091 l 0.0093,-0.0093 0.0096,-0.0095 c 0.003,-0.003 0.0054,-0.0063 0.0085,-0.0098 0.003,-0.003 0.0057,-0.0072 0.0088,-0.01035 0.0025,-0.003 0.0054,-0.007 0.008,-0.0101 0.0025,-0.004 0.0056,-0.0072 0.008,-0.0111 0.0025,-0.004 0.0051,-0.0072 0.0072,-0.0111 0.0025,-0.004 0.005,-0.0072 0.007,-0.0111 0.0025,-0.004 0.004,-0.0078 0.0065,-0.01135 0.0025,-0.004 0.005,-0.0079 0.0062,-0.0119 0.0025,-0.004 0.003,-0.008 0.0057,-0.0119 0.0025,-0.004 0.004,-0.008 0.0054,-0.0119 0.0025,-0.004 0.003,-0.0083 0.0052,-0.0124 0.0025,-0.004 0.003,-0.0084 0.005,-0.01265 0.0025,-0.004 0.0025,-0.0083 0.004,-0.0124 0.0025,-0.004 0.0025,-0.0084 0.004,-0.01265 0.0025,-0.004 0.0025,-0.0085 0.003,-0.0129 0.0025,-0.004 0.0025,-0.0087 0.003,-0.0129 0,-0.004 0.0025,-0.0085 0.0025,-0.0129 0,-0.005 0.0025,-0.0089 0.0025,-0.0132 0,-0.005 -1.72e-4,-0.0088 0.0025,-0.0132 0,-0.004 0.0025,-0.0085 0.0025,-0.0129 v -0.0137 c 7e-5,-0.005 7e-5,-0.0088 0,-0.0132 v -0.0062 c -1.98e-4,-0.005 0,-0.0088 0,-0.0132 v -0.0132 c 0,-0.005 -7.5e-5,-0.0085 -0.0025,-0.0129 0,-0.005 1.72e-4,-0.0088 -0.0025,-0.01315 0,-0.005 -0.0025,-0.0088 -0.0025,-0.0132 0,-0.005 -0.0025,-0.0085 -0.0025,-0.0129 0,-0.005 -0.0025,-0.0089 -0.003,-0.0132 -0.0025,-0.004 -0.0025,-0.0084 -0.004,-0.01265 -0.0025,-0.004 -0.0025,-0.0084 -0.004,-0.01265 -0.0025,-0.004 -0.0025,-0.0084 -0.004,-0.0124 -0.0025,-0.004 -0.003,-0.0084 -0.005,-0.0124 -0.0025,-0.004 -0.004,-0.0081 -0.0057,-0.01215 -0.0025,-0.004 -0.004,-0.0079 -0.0054,-0.0119 -0.0025,-0.004 -0.004,-0.0079 -0.0065,-0.0119 -0.0025,-0.004 -0.004,-0.0081 -0.0062,-0.01165 -0.0025,-0.004 -0.0051,-0.0078 -0.0072,-0.01135 -0.0025,-0.004 -0.0051,-0.0072 -0.0073,-0.0111 -0.0025,-0.004 -0.0054,-0.0072 -0.008,-0.0111 -0.0025,-0.003 -0.0051,-0.0069 -0.008,-0.0101 -0.0025,-0.004 -0.0054,-0.0073 -0.008,-0.01085 -0.0025,-0.003 -0.0057,-0.0063 -0.0088,-0.0098 -0.003,-0.003 -0.0055,-0.0063 -0.0091,-0.0098 l -0.0095,-0.0096 c -0.003,-0.003 -0.0062,-0.0064 -0.0093,-0.009 -0.003,-0.003 -0.0063,-0.0064 -0.0098,-0.0091 -0.003,-0.003 -0.0064,-0.0054 -0.01035,-0.0085 -0.003,-0.003 -0.0073,-0.0056 -0.01085,-0.0083 -0.004,-0.0025 -0.007,-0.0056 -0.0106,-0.008 -0.004,-0.0025 -0.0071,-0.005 -0.0111,-0.0069 -0.004,-0.0025 -0.0078,-0.0051 -0.01135,-0.0072 -0.004,-0.0025 -0.0071,-0.004 -0.0111,-0.0062 -0.004,-0.0025 -0.0082,-0.0051 -0.01215,-0.0065 -0.004,-0.0015 -0.0079,-0.004 -0.0119,-0.0057 -0.004,-0.0015 -0.0081,-0.004 -0.0124,-0.0054 -0.004,-0.0015 -0.0082,-0.003 -0.01215,-0.005 -0.004,-0.0015 -0.0082,-0.003 -0.01265,-0.0052 -0.004,-0.0015 -0.0082,-0.003 -0.0124,-0.004 -0.004,-0.0015 -0.0085,-0.0025 -0.0129,-0.004 -0.005,-0.0015 -0.0087,-0.0025 -0.0129,-0.003 -0.004,-0.0015 -0.0085,-0.0025 -0.0129,-0.003 -0.005,-0.001 -0.0087,-0.0015 -0.01295,-0.0025 -0.005,-5e-4 -0.0087,-0.0015 -0.0129,-0.0015 -0.005,-4.1e-4 -0.0089,-0.001 -0.01315,-0.0015 -0.005,-5e-4 -0.0089,-0.0015 -0.0132,-0.0015 -0.005,-4.23e-4 -0.0089,-5e-4 -0.01315,-0.001 -0.005,-1.98e-4 -0.0087,-2.64e-4 -0.0129,-2.64e-4 h -0.0065 -2.80654 z m 0.1018,1.37614 -0.0015,2.65e-4 v 2.64e-4 c -0.003,-4e-5 -0.0063,-4e-5 -0.0098,0 -0.005,6.5e-5 -0.0099,2.91e-4 -0.01475,5e-4 -0.005,1.86e-4 -0.0099,4.5e-4 -0.0147,10e-4 -0.005,4.24e-4 -0.0099,0.001 -0.0147,0.0015 -0.005,4.24e-4 -0.0096,0.001 -0.0142,0.0015 -0.005,0.001 -0.0099,0.0015 -0.01475,0.0025 -0.005,0.001 -0.0099,0.0015 -0.0145,0.0025 -0.005,10e-4 -0.0099,0.0015 -0.0147,0.003 -0.005,0.0015 -0.0096,0.0025 -0.0142,0.004 -0.005,0.0015 -0.0092,0.0025 -0.01395,0.004 -0.005,0.0015 -0.009,0.003 -0.0137,0.0052 -0.005,0.0015 -0.0094,0.003 -0.01395,0.005 -0.005,0.0015 -0.0092,0.004 -0.01395,0.0057 -0.005,0.0015 -0.0091,0.003 -0.01345,0.0054 -0.005,0.0025 -0.0091,0.004 -0.01345,0.0065 -0.005,0.0015 -0.0087,0.004 -0.0129,0.0062 -0.005,0.0025 -0.0087,0.0051 -0.0129,0.0072 -0.004,0.0025 -0.0087,0.0051 -0.0129,0.0073 -0.004,0.0025 -0.0083,0.005 -0.01265,0.0077 -0.004,0.0025 -0.0082,0.0056 -0.0124,0.0083 -0.004,0.003 -0.0082,0.0057 -0.01215,0.0088 -0.004,0.003 -0.0079,0.0054 -0.0119,0.0085 -0.004,0.003 -0.0081,0.0065 -0.01165,0.0096 -0.004,0.003 -0.0072,0.0062 -0.0111,0.0093 -0.004,0.003 -0.0071,0.0063 -0.0111,0.0098 -0.003,0.003 -0.007,0.0073 -0.0106,0.01035 -0.004,0.003 -0.0072,0.0071 -0.01035,0.0106 -0.003,0.003 -0.0063,0.0071 -0.0098,0.0106 -0.003,0.004 -0.0063,0.0081 -0.0098,0.01165 -0.003,0.004 -0.0065,0.0072 -0.0096,0.0111 -0.003,0.004 -0.0054,0.008 -0.0085,0.0119 -0.003,0.004 -0.0063,0.0079 -0.0091,0.0119 -0.0025,0.004 -0.0056,0.008 -0.008,0.01215 -0.0025,0.004 -0.0057,0.0083 -0.0083,0.0124 -0.0025,0.004 -0.005,0.0084 -0.007,0.01265 -0.0025,0.004 -0.0051,0.0088 -0.0072,0.0132 -0.0025,0.004 -0.004,0.0089 -0.0065,0.0132 -0.0025,0.005 -0.005,0.0089 -0.0062,0.01345 -0.0025,0.005 -0.004,0.0089 -0.0057,0.01345 -0.0025,0.005 -0.004,0.0091 -0.0055,0.0137 -0.0025,0.005 -0.003,0.0092 -0.005,0.01395 -0.0025,0.005 -0.003,0.0093 -0.0052,0.01395 -0.0025,0.005 -0.0025,0.0094 -0.004,0.0142 -0.0025,0.005 -0.0025,0.0095 -0.004,0.0142 -0.0025,0.005 -0.0025,0.0093 -0.003,0.0142 -0.0025,0.005 -0.0025,0.0099 -0.003,0.0147 0,0.005 -0.0025,0.0096 -0.0025,0.01445 0,0.005 1.72e-4,0.0098 -0.0025,0.01475 0,0.005 -0.0025,0.0098 -0.0025,0.0147 0,0.005 -0.0025,0.0099 -0.0025,0.0147 v 0.01475 c -7.5e-5,0.005 -7.5e-5,0.0099 0,0.01475 v 0.299206 0.295589 0.0025 c -7.5e-5,0.0071 -7.5e-5,0.01485 0,0.02225 1.98e-4,0.0071 0,0.01455 0,0.02195 0,0.0071 9.5e-5,0.01475 0.0025,0.02195 0,0.0072 8e-5,0.01455 0.0025,0.02195 0,0.0072 -1.72e-4,0.0144 0.0025,0.0217 0,0.0071 0.0025,0.0147 0.0025,0.02195 0,0.0071 0.0025,0.01455 0.003,0.02195 0,0.0072 0.0025,0.01475 0.003,0.02195 0.0025,0.0072 0.0025,0.0145 0.004,0.0217 0.0025,0.0071 0.0025,0.01405 0.004,0.0212 0.0025,0.0072 0.003,0.0143 0.0052,0.02145 0.0025,0.0072 0.003,0.01445 0.0055,0.0217 0.0025,0.0071 0.004,0.0143 0.0054,0.02145 0.0025,0.0071 0.004,0.014 0.0065,0.02095 0.0025,0.0072 0.0051,0.01405 0.0065,0.0212 0.0025,0.0071 0.005,0.01395 0.007,0.02095 0.0025,0.0071 0.0051,0.0138 0.0073,0.02065 0.0025,0.0071 0.005,0.01395 0.008,0.02095 0.0025,0.0071 0.0054,0.01355 0.008,0.0204 0.0025,0.0064 0.0057,0.01345 0.0088,0.02015 0.003,0.0064 0.0055,0.01345 0.009,0.02015 0.003,0.0063 0.0062,0.0132 0.0093,0.0199 0.003,0.0063 0.0063,0.0134 0.0098,0.0199 0.003,0.0063 0.0066,0.01275 0.0101,0.0191 0.004,0.0064 0.007,0.01305 0.0106,0.0194 0.004,0.0064 0.0071,0.0129 0.0111,0.0194 0.003,0.0063 0.0071,0.01255 0.0111,0.01885 0.004,0.0063 0.0078,0.0125 0.0119,0.0186 0.004,0.0063 0.0082,0.01225 0.01215,0.01835 0.004,0.0064 0.0083,0.01215 0.01265,0.0181 0.004,0.0064 0.0085,0.0119 0.01295,0.01785 0.005,0.0056 0.0085,0.01205 0.0129,0.01785 0.005,0.0055 0.0092,0.01135 0.01395,0.01705 0.005,0.0055 0.0091,0.0116 0.01345,0.0173 0.005,0.0055 0.0093,0.0112 0.0142,0.0168 0.005,0.0055 0.0099,0.01105 0.0147,0.01655 0.005,0.0055 0.0099,0.01065 0.0147,0.016 0.005,0.0055 0.01,0.01065 0.015,0.016 0.0055,0.0055 0.01075,0.01035 0.016,0.0155 0.005,0.005 0.01025,0.01025 0.0155,0.01525 0.0055,0.005 0.01115,0.0099 0.01655,0.0147 0.0055,0.005 0.01085,0.0099 0.0163,0.01475 0.0055,0.005 0.0111,0.0094 0.0168,0.0142 0.0055,0.005 0.01105,0.0092 0.0168,0.0137 0.0055,0.005 0.0117,0.009 0.0176,0.01345 0.0055,0.005 0.01195,0.0093 0.0178,0.0137 0.0055,0.004 0.01165,0.0084 0.01755,0.01265 0.0063,0.004 0.012,0.0081 0.01835,0.01215 0.0063,0.004 0.01235,0.0084 0.0186,0.0124 0.0063,0.004 0.01235,0.0081 0.0186,0.01165 0.0064,0.004 0.01255,0.0078 0.01885,0.01135 0.0064,0.004 0.0129,0.0071 0.0194,0.0106 0.0063,0.004 0.0126,0.0073 0.0191,0.01085 0.0064,0.003 0.01315,0.007 0.0199,0.0101 0.0064,0.003 0.0129,0.0065 0.01965,0.0096 0.0063,0.003 0.0134,0.0063 0.02015,0.0098 0.0064,0.003 0.0134,0.0054 0.02015,0.0085 0.0064,0.003 0.0134,0.0057 0.02015,0.0088 0.0063,0.003 0.01375,0.0054 0.0207,0.008 0.0072,0.0025 0.01375,0.0056 0.02095,0.008 0.0063,0.0025 0.01375,0.0051 0.02065,0.0073 0.0072,0.0025 0.0138,0.005 0.02095,0.007 0.0072,0.0025 0.01405,0.004 0.0212,0.0065 0.0072,0.0015 0.01415,0.004 0.0212,0.0057 0.0072,0.0015 0.0144,0.004 0.02145,0.0054 0.0071,0.0015 0.01415,0.003 0.0212,0.005 0.0071,0.0015 0.01475,0.003 0.02195,0.0052 0.0072,0.0015 0.0145,0.0025 0.0217,0.004 0.0071,0.0015 0.01415,0.003 0.0212,0.004 0.0071,0.0015 0.0148,0.0025 0.0222,0.003 0.0072,0.0015 0.0145,0.0025 0.0217,0.003 0.0071,0.001 0.0145,0.0015 0.0217,0.0025 0.0072,5e-4 0.0148,0.0015 0.0222,0.0015 0.0071,5e-4 0.01445,0.0015 0.0217,0.0015 0.0072,5e-4 0.01475,0.0015 0.0222,0.0015 0.0071,4.24e-4 0.0145,5e-4 0.0217,0.001 0.0072,8e-5 0.01475,8e-5 0.0222,0 h 0.0025 2.122355 0.0065 c 0.005,-5.5e-5 0.0088,-2.91e-4 0.0132,-5e-4 0.005,-1.98e-4 0.009,-4.63e-4 0.0132,-10e-4 0.005,-4.23e-4 0.0087,-0.001 0.0129,-0.0015 0.005,-4.23e-4 0.0087,-0.001 0.0129,-0.0015 0.005,-0.001 0.009,-0.0015 0.01315,-0.0025 0.005,-0.001 0.0087,-0.0015 0.0129,-0.0025 0.004,-10e-4 0.0085,-0.0025 0.0129,-0.003 0.005,-10e-4 0.0087,-0.0025 0.0129,-0.004 0.004,-0.0015 0.0082,-0.0025 0.0124,-0.004 0.004,-0.0015 0.0084,-0.0025 0.01265,-0.004 0.004,-0.0015 0.0082,-0.003 0.0124,-0.005 0.004,-0.0015 0.0082,-0.004 0.0124,-0.0054 0.004,-0.0015 0.0078,-0.004 0.0119,-0.0057 0.004,-0.0015 0.0079,-0.003 0.0119,-0.0054 0.004,-0.0025 0.008,-0.004 0.01165,-0.0065 0.004,-0.0025 0.008,-0.0051 0.01165,-0.0072 0.004,-0.0025 0.0071,-0.005 0.0111,-0.007 0.004,-0.0025 0.0071,-0.0056 0.0111,-0.0083 0.003,-0.0025 0.0072,-0.0051 0.01035,-0.008 0.003,-0.0025 0.0072,-0.0056 0.01035,-0.0083 0.003,-0.003 0.0072,-0.0055 0.01035,-0.0085 0.003,-0.003 0.0063,-0.0064 0.0098,-0.0091 l 0.0093,-0.0093 0.0095,-0.0095 c 0.003,-0.003 0.0057,-0.0063 0.0088,-0.0098 0.003,-0.003 0.0054,-0.0071 0.0085,-0.0106 0.0025,-0.003 0.0056,-0.0072 0.008,-0.01035 0.0025,-0.003 0.0054,-0.0071 0.008,-0.0106 0.0025,-0.004 0.0051,-0.0072 0.0073,-0.0111 0.0025,-0.004 0.0051,-0.0078 0.0072,-0.01135 0.0025,-0.004 0.004,-0.0081 0.0062,-0.0116 0.0025,-0.004 0.0051,-0.0078 0.0065,-0.01135 0.0025,-0.004 0.004,-0.008 0.0054,-0.0119 0.0025,-0.004 0.004,-0.0083 0.0057,-0.0124 0.0025,-0.004 0.003,-0.0083 0.005,-0.0124 0.0025,-0.004 0.003,-0.0081 0.005,-0.01215 0.0025,-0.004 0.0025,-0.0084 0.004,-0.01265 0.0025,-0.004 0.0025,-0.0087 0.004,-0.0129 0.0025,-0.004 0.0025,-0.0084 0.003,-0.01265 0.0025,-0.004 0.0025,-0.0086 0.003,-0.0129 0,-0.005 0.0025,-0.0088 0.0025,-0.0132 0,-0.005 8e-5,-0.0088 0.0025,-0.0132 0,-0.005 0.0025,-0.0085 0.0025,-0.0129 0,-0.005 0.0025,-0.0088 0.0025,-0.01315 v -0.0132 c 9e-5,-0.005 9e-5,-0.009 0,-0.01345 v -0.0064 c -1.98e-4,-0.005 0,-0.0086 0,-0.0129 -1.85e-4,-0.005 0,-0.0093 0,-0.0137 0,-0.005 1.72e-4,-0.0085 -0.0025,-0.0129 0,-0.005 -8e-5,-0.0089 -0.0025,-0.0132 0,-0.005 -0.0025,-0.0088 -0.0025,-0.0132 0,-0.004 -0.0025,-0.0084 -0.0025,-0.01265 0,-0.005 -0.0025,-0.0089 -0.003,-0.0132 -0.0025,-0.004 -0.0025,-0.0084 -0.004,-0.01265 -0.0025,-0.004 -0.0025,-0.0084 -0.004,-0.01265 -0.0025,-0.004 -0.0025,-0.0084 -0.004,-0.0124 -0.0025,-0.004 -0.003,-0.0081 -0.0051,-0.01215 -0.0025,-0.004 -0.003,-0.0084 -0.0055,-0.0124 -0.0025,-0.004 -0.004,-0.0081 -0.0057,-0.01215 -0.0025,-0.004 -0.004,-0.0081 -0.0062,-0.0116 -0.0025,-0.004 -0.004,-0.0079 -0.0064,-0.0119 -0.0025,-0.004 -0.0051,-0.0072 -0.0073,-0.0111 -0.0025,-0.004 -0.005,-0.0069 -0.0069,-0.01085 -0.0025,-0.004 -0.0057,-0.0072 -0.0083,-0.0111 -0.0025,-0.004 -0.005,-0.0071 -0.0077,-0.0106 -0.0025,-0.003 -0.0057,-0.0072 -0.0083,-0.01035 -0.003,-0.003 -0.0055,-0.0072 -0.0091,-0.01035 -0.0025,-0.003 -0.0055,-0.0063 -0.0085,-0.0098 l -0.0095,-0.0093 c -0.003,-0.003 -0.0062,-0.0063 -0.0093,-0.009 -0.003,-0.003 -0.0064,-0.0066 -0.01035,-0.0093 -0.003,-0.003 -0.0063,-0.0054 -0.0098,-0.008 -0.003,-0.003 -0.0073,-0.0057 -0.01085,-0.0083 -0.004,-0.0025 -0.007,-0.0053 -0.0106,-0.0078 -0.004,-0.0025 -0.0072,-0.0051 -0.0111,-0.0072 -0.004,-0.0025 -0.008,-0.0051 -0.01165,-0.0072 -0.004,-0.0025 -0.0078,-0.005 -0.01135,-0.0062 -0.004,-0.0025 -0.0081,-0.004 -0.0116,-0.0064 -0.004,-0.0015 -0.0079,-0.004 -0.0119,-0.0054 -0.004,-0.0015 -0.0082,-0.004 -0.0124,-0.0057 -0.004,-0.0015 -0.0082,-0.003 -0.0124,-0.005 -0.004,-0.0015 -0.0082,-0.003 -0.0124,-0.0052 -0.004,-0.0015 -0.0085,-0.003 -0.0129,-0.004 -0.004,-0.0015 -0.0083,-0.003 -0.01265,-0.004 -0.004,-0.0015 -0.0085,-0.0025 -0.0129,-0.003 -0.005,-10e-4 -0.0087,-0.0015 -0.0129,-0.003 -0.005,-10e-4 -0.0087,-0.0015 -0.0129,-0.0025 -0.005,-5e-4 -0.009,-0.0015 -0.0132,-0.0015 -0.005,-5e-4 -0.0087,-0.0015 -0.0129,-0.0015 -0.005,-5e-4 -0.0087,-0.0015 -0.0129,-0.0015 -0.005,-2.11e-4 -0.009,-2.64e-4 -0.0132,-2.64e-4 -0.005,-2.12e-4 -0.0089,-5e-4 -0.01315,-5e-4 h -0.0065 -1.078745 -0.01035 -0.450095 -0.399205 c -0.0025,1.5e-5 -0.004,1.5e-5 -0.0054,0 -0.004,-1.99e-4 -0.008,-4.63e-4 -0.01165,-0.001 -0.004,-4.24e-4 -0.0081,-0.001 -0.01165,-0.0015 -0.004,-4.24e-4 -0.0077,-10e-4 -0.0114,-0.0015 -0.004,-4.24e-4 -0.0081,-10e-4 -0.0116,-0.0015 -0.004,-10e-4 -0.0072,-0.0015 -0.0111,-0.0025 -0.004,-0.001 -0.0072,-0.0015 -0.0111,-0.003 -0.004,-0.001 -0.0072,-0.0025 -0.0111,-0.003 -0.004,-0.0015 -0.0071,-0.0025 -0.0111,-0.004 -0.004,-0.0015 -0.007,-0.0025 -0.0106,-0.004 -0.004,-0.0015 -0.0073,-0.003 -0.01085,-0.0052 -0.003,-0.0015 -0.007,-0.003 -0.0101,-0.005 -0.003,-0.0015 -0.0072,-0.003 -0.01035,-0.0054 -0.003,-0.0015 -0.0063,-0.004 -0.0098,-0.0057 -0.003,-0.0015 -0.0066,-0.004 -0.0101,-0.0062 -0.003,-0.0025 -0.0062,-0.004 -0.0093,-0.0065 -0.003,-0.0025 -0.0064,-0.0051 -0.0095,-0.0072 -0.003,-0.0025 -0.0054,-0.005 -0.0085,-0.0069 -0.003,-0.0025 -0.0057,-0.0056 -0.0088,-0.0083 -0.0025,-0.0025 -0.0054,-0.0051 -0.008,-0.008 -0.0025,-0.0025 -0.0056,-0.0055 -0.0082,-0.0083 -0.0025,-0.003 -0.0053,-0.0054 -0.0078,-0.0085 -0.0025,-0.003 -0.0051,-0.0064 -0.0072,-0.0091 -0.0025,-0.003 -0.0051,-0.0063 -0.0072,-0.009 -0.0025,-0.003 -0.005,-0.0065 -0.0062,-0.0096 -0.0025,-0.003 -0.004,-0.0063 -0.0065,-0.0098 -0.0025,-0.003 -0.004,-0.0065 -0.0054,-0.0096 -0.0025,-0.003 -0.004,-0.0069 -0.0057,-0.0101 -0.0025,-0.003 -0.003,-0.0072 -0.005,-0.01035 -0.0025,-0.003 -0.003,-0.0071 -0.0052,-0.0106 -0.0025,-0.003 -0.0025,-0.0071 -0.004,-0.0106 -0.0025,-0.004 -0.0025,-0.0072 -0.004,-0.0111 -0.0025,-0.003 -0.0025,-0.0071 -0.003,-0.0106 0,-0.004 -0.0025,-0.0072 -0.003,-0.0111 0,-0.004 -0.0025,-0.0081 -0.0025,-0.0116 0,-0.004 -0.0025,-0.0069 -0.0025,-0.01085 0,-0.004 -0.0025,-0.0081 -0.0025,-0.0116 0,-0.004 -0.0025,-0.0078 -0.0025,-0.01135 v -0.0116 -0.003 -0.620635 c -9.5e-5,-0.004 0,-0.0079 0,-0.0119 -2.25e-4,-0.005 0,-0.0095 0,-0.0142 0,-0.005 1.72e-4,-0.0098 -0.0025,-0.0147 0,-0.005 -8e-5,-0.0099 -0.0025,-0.01475 0,-0.005 -0.0025,-0.0097 -0.0025,-0.01445 0,-0.005 -0.0025,-0.0098 -0.0025,-0.01475 0,-0.005 -0.0025,-0.0097 -0.003,-0.01445 -0.0025,-0.005 -0.0025,-0.0094 -0.004,-0.0142 -0.0025,-0.005 -0.0025,-0.0093 -0.004,-0.01395 -0.0025,-0.005 -0.003,-0.0097 -0.005,-0.01445 -0.0025,-0.005 -0.003,-0.0093 -0.0052,-0.01395 -0.0025,-0.005 -0.003,-0.009 -0.0055,-0.01345 -0.0025,-0.005 -0.004,-0.009 -0.0054,-0.01345 -0.0025,-0.005 -0.004,-0.0092 -0.0065,-0.0137 -0.0025,-0.005 -0.0051,-0.0086 -0.0065,-0.0129 -0.0025,-0.005 -0.005,-0.0089 -0.007,-0.0132 -0.0025,-0.004 -0.0051,-0.0084 -0.0072,-0.01265 -0.0025,-0.004 -0.0056,-0.0084 -0.008,-0.01265 -0.0025,-0.004 -0.0053,-0.0084 -0.008,-0.0124 -0.0025,-0.004 -0.0057,-0.008 -0.0083,-0.0119 -0.003,-0.004 -0.0055,-0.008 -0.009,-0.0119 -0.003,-0.004 -0.0055,-0.0081 -0.0091,-0.0116 -0.003,-0.004 -0.0063,-0.0069 -0.0098,-0.01085 -0.003,-0.004 -0.0064,-0.0072 -0.0099,-0.0111 -0.003,-0.004 -0.0064,-0.0071 -0.01035,-0.0106 -0.003,-0.003 -0.0073,-0.0072 -0.01085,-0.01035 -0.004,-0.003 -0.007,-0.0072 -0.0106,-0.01035 -0.003,-0.003 -0.0071,-0.0062 -0.0111,-0.0093 -0.004,-0.003 -0.0078,-0.0064 -0.01135,-0.0095 -0.004,-0.003 -0.0081,-0.0064 -0.01215,-0.0091 -0.004,-0.003 -0.0079,-0.0055 -0.0119,-0.0085 -0.004,-0.003 -0.0083,-0.0056 -0.0124,-0.0083 -0.004,-0.0025 -0.0082,-0.0053 -0.0124,-0.0077 -0.004,-0.0025 -0.0082,-0.0051 -0.01265,-0.0073 -0.0025,-0.001 -0.0025,-0.0015 -0.004,-0.0025 -0.003,-0.0015 -0.0062,-0.003 -0.0093,-0.005 -0.005,-0.0025 -0.009,-0.004 -0.0132,-0.0064 -0.005,-0.0025 -0.0087,-0.005 -0.0129,-0.0062 -0.005,-0.0015 -0.0091,-0.004 -0.01345,-0.0057 -0.005,-0.0015 -0.0091,-0.004 -0.0137,-0.0054 -0.005,-0.0015 -0.009,-0.003 -0.0137,-0.0052 -0.005,-0.0015 -0.0096,-0.003 -0.01445,-0.005 -0.005,-0.0015 -0.0093,-0.003 -0.01395,-0.004 -0.005,-0.0015 -0.0093,-0.0025 -0.0142,-0.004 -0.005,-0.0015 -0.0094,-0.0025 -0.0142,-0.003 -0.005,-0.0015 -0.0099,-0.0025 -0.01445,-0.003 -0.005,-10e-4 -0.0099,-0.0015 -0.0147,-0.0025 -0.005,-5e-4 -0.0096,-0.0015 -0.0142,-0.0015 -0.005,-4.24e-4 -0.0099,-0.001 -0.0147,-0.0015 -0.005,-5e-4 -0.0099,-0.0015 -0.01475,-0.0015 -0.005,-4.24e-4 -0.0099,-5e-4 -0.0147,-0.001 -0.005,-1.99e-4 -0.0096,-5e-4 -0.0142,-5e-4 z m 1.912804,2.65e-4 -0.0124,2.64e-4 h -0.695564 -0.0129 c -0.005,6.5e-5 -0.0087,2.91e-4 -0.01295,5e-4 -0.005,1.99e-4 -0.009,4.5e-4 -0.01315,10e-4 -0.005,4.24e-4 -0.0088,0.001 -0.0132,0.0015 -0.005,4.24e-4 -0.009,0.001 -0.01315,0.0015 -0.005,5e-4 -0.0087,0.0015 -0.0129,0.0025 -0.004,0.001 -0.0088,0.0015 -0.0129,0.0025 -0.005,10e-4 -0.0087,0.0025 -0.0129,0.003 -0.004,10e-4 -0.0082,0.0025 -0.01265,0.003 -0.004,0.0015 -0.0087,0.0025 -0.0129,0.004 -0.004,0.0015 -0.0083,0.003 -0.01265,0.005 -0.004,0.0015 -0.0082,0.003 -0.0124,0.005 -0.004,0.0015 -0.0082,0.003 -0.01215,0.0057 -0.004,0.0015 -0.0082,0.004 -0.01215,0.0054 -0.004,0.0015 -0.0078,0.004 -0.01135,0.0065 -0.004,0.0025 -0.0082,0.004 -0.01215,0.0062 -0.004,0.0025 -0.008,0.0051 -0.01165,0.0072 -0.004,0.0025 -0.0071,0.0051 -0.0111,0.0072 -0.004,0.0025 -0.007,0.005 -0.0106,0.0069 -0.003,0.0025 -0.0073,0.0056 -0.01085,0.0083 -0.003,0.0025 -0.0069,0.0056 -0.0101,0.0083 -0.003,0.003 -0.0072,0.0055 -0.01035,0.0085 -0.003,0.003 -0.0063,0.0064 -0.0098,0.0091 -0.003,0.003 -0.0065,0.0064 -0.0096,0.009 -0.003,0.003 -0.0063,0.0063 -0.009,0.0098 -0.003,0.003 -0.0064,0.0063 -0.0091,0.0098 -0.0025,0.003 -0.0057,0.0072 -0.0083,0.01035 -0.0025,0.003 -0.0053,0.0073 -0.008,0.01035 -0.0025,0.004 -0.0056,0.0069 -0.008,0.01085 -0.0025,0.004 -0.0051,0.0072 -0.0072,0.0111 -0.0025,0.004 -0.005,0.0072 -0.007,0.0111 -0.0025,0.004 -0.0051,0.0078 -0.0065,0.01135 -0.0025,0.004 -0.004,0.0081 -0.0065,0.0116 -0.0025,0.004 -0.004,0.008 -0.0055,0.0119 -0.0025,0.004 -0.004,0.0083 -0.0057,0.0124 -0.0025,0.004 -0.003,0.008 -0.005,0.01215 -0.0025,0.004 -0.003,0.0082 -0.005,0.0124 -0.0025,0.004 -0.0025,0.0084 -0.004,0.01265 -0.0025,0.004 -0.0025,0.0083 -0.004,0.0124 -0.0025,0.004 -0.0025,0.0085 -0.003,0.0129 0,0.005 -0.0025,0.0088 -0.003,0.0132 0,0.004 -0.0025,0.0089 -0.0025,0.0132 0,0.005 -0.0025,0.0085 -0.0025,0.0129 0,0.004 -0.0025,0.0084 -0.0025,0.01265 0,0.005 -0.0025,0.0092 -0.0025,0.0137 -2.25e-4,0.005 0,0.0085 0,0.0129 -7e-5,0.005 -7e-5,0.0088 0,0.0132 -9.5e-5,0.005 -9.5e-5,0.0092 0,0.0137 6.5e-5,0.005 1.85e-4,0.0085 0,0.0129 0,0.005 8e-5,0.0089 0.0025,0.0132 0,0.005 -1.72e-4,0.009 0.0025,0.01345 0,0.004 8e-5,0.0085 0.0025,0.01265 0,0.005 0.0025,0.0089 0.0025,0.0132 0,0.005 0.0025,0.0088 0.003,0.0132 0,0.004 0.0025,0.0084 0.003,0.01265 0.0025,0.004 0.0025,0.0084 0.004,0.01265 0.0025,0.004 0.0025,0.0084 0.004,0.01265 0.0025,0.004 0.003,0.0084 0.005,0.0124 0.0025,0.004 0.003,0.0081 0.005,0.01215 0.0025,0.004 0.003,0.0084 0.0057,0.0124 0.0025,0.004 0.004,0.008 0.0055,0.0119 0.0025,0.004 0.004,0.0081 0.0065,0.01165 0.0025,0.004 0.0051,0.0078 0.0065,0.01135 0.0025,0.004 0.005,0.0081 0.007,0.01165 0.0025,0.004 0.0051,0.007 0.0072,0.0106 0.0025,0.004 0.0051,0.0072 0.008,0.0111 0.0025,0.003 0.0053,0.0069 0.008,0.0101 0.0025,0.003 0.0057,0.0073 0.0083,0.01035 0.003,0.003 0.0055,0.0072 0.0091,0.01035 0.003,0.003 0.0055,0.0062 0.009,0.0093 0.003,0.003 0.0065,0.0064 0.0096,0.009 0.003,0.003 0.0063,0.0064 0.0098,0.0091 0.003,0.003 0.0064,0.0064 0.01035,0.009 0.003,0.0025 0.0061,0.0056 0.0101,0.008 0.004,0.003 0.0073,0.0056 0.01085,0.0083 0.003,0.0025 0.007,0.0056 0.0106,0.008 0.004,0.0025 0.0072,0.005 0.0111,0.007 0.004,0.0025 0.008,0.0051 0.01165,0.0073 0.004,0.0025 0.0081,0.005 0.01215,0.0062 0.004,0.0015 0.0078,0.004 0.01135,0.0057 0.004,0.0015 0.0082,0.004 0.01215,0.0055 0.004,0.0015 0.0082,0.004 0.0124,0.0057 0.004,0.0015 0.0082,0.003 0.0124,0.005 0.004,0.0015 0.0082,0.003 0.0124,0.004 0.004,0.0015 0.0085,0.0025 0.0129,0.004 0.005,0.0015 0.0087,0.003 0.0129,0.004 0.004,0.0015 0.0082,0.0025 0.01265,0.003 0.005,9.99e-4 0.0089,0.0015 0.01315,0.0025 0.005,10e-4 0.0087,0.0015 0.0129,0.0025 0.005,4.99e-4 0.0087,0.0015 0.0129,0.0015 0.005,4.99e-4 0.0089,0.0015 0.0132,0.0015 0.005,4.23e-4 0.0087,4.99e-4 0.0129,0.001 0.005,2.11e-4 0.0091,5e-4 0.01345,5e-4 h 0.0062 0.698659 0.003 0.0062 0.80486 0.0065 c 0.005,7.4e-5 0.0087,7.4e-5 0.0129,0 0.005,-1.99e-4 0.0091,-4.5e-4 0.01345,-10e-4 0.005,-4.22e-4 0.0087,-9.99e-4 0.0129,-0.0015 0.005,-4.22e-4 0.009,-9.99e-4 0.01315,-0.0015 0.005,-4.22e-4 0.0087,-9.99e-4 0.0129,-0.0015 0.005,-4.99e-4 0.0087,-0.0015 0.0129,-0.0025 0.004,-10e-4 0.0085,-0.0025 0.0129,-0.003 0.005,-10e-4 0.0087,-0.0025 0.0129,-0.003 0.004,-0.0015 0.0087,-0.0025 0.0129,-0.004 0.004,-0.0015 0.0082,-0.0025 0.0124,-0.004 0.004,-0.0015 0.0083,-0.003 0.01265,-0.0052 0.004,-0.0015 0.0082,-0.003 0.0124,-0.005 0.004,-0.0015 0.0082,-0.004 0.01215,-0.0057 0.004,-0.0015 0.0079,-0.003 0.0119,-0.0054 0.004,-0.0025 0.0078,-0.004 0.0119,-0.0065 0.004,-0.0015 0.0081,-0.004 0.01165,-0.0062 0.004,-0.0025 0.0072,-0.0051 0.0111,-0.0072 0.004,-0.0025 0.0072,-0.0051 0.0111,-0.0073 0.004,-0.0025 0.0072,-0.0053 0.0111,-0.008 0.003,-0.0025 0.0072,-0.0056 0.01035,-0.0083 0.003,-0.0025 0.0072,-0.0055 0.01035,-0.0083 0.003,-0.003 0.0063,-0.0063 0.0098,-0.0091 0.003,-0.003 0.0063,-0.0063 0.0098,-0.009 0.003,-0.003 0.0063,-0.0064 0.0091,-0.0095 0.003,-0.003 0.0063,-0.0063 0.0091,-0.0098 0.003,-0.003 0.0055,-0.0063 0.0085,-0.0098 0.0025,-0.003 0.0056,-0.0071 0.0082,-0.0106 0.0025,-0.003 0.0053,-0.0072 0.008,-0.01035 0.0025,-0.004 0.0056,-0.0071 0.008,-0.0111 0.0025,-0.004 0.0051,-0.0072 0.0072,-0.0111 0.0025,-0.004 0.005,-0.0078 0.0069,-0.01135 0.0025,-0.004 0.0051,-0.0081 0.0065,-0.01165 0.0025,-0.004 0.004,-0.0079 0.0055,-0.0119 0.0025,-0.004 0.004,-0.0079 0.0056,-0.0119 0.0025,-0.004 0.004,-0.0081 0.0055,-0.01215 0.0025,-0.004 0.003,-0.0083 0.0052,-0.0124 0.0025,-0.004 0.0025,-0.0083 0.004,-0.0124 0.0025,-0.004 0.0025,-0.0085 0.004,-0.0129 0.0025,-0.004 0.0025,-0.0084 0.004,-0.01265 0.0025,-0.004 0.0025,-0.0087 0.003,-0.0129 0,-0.005 0.0025,-0.0085 0.0025,-0.0129 0,-0.005 0.0025,-0.0089 0.0025,-0.0132 0,-0.005 0.0025,-0.0088 0.0025,-0.0132 0,-0.005 0.0025,-0.0085 0.0025,-0.0129 v -0.01315 -0.0132 -0.0062 c 6.5e-5,-0.005 6.5e-5,-0.0088 0,-0.01315 -1.72e-4,-0.005 0,-0.009 0,-0.01345 0,-0.005 1.72e-4,-0.0089 -0.0025,-0.0132 0,-0.005 -8e-5,-0.0088 -0.0025,-0.0132 0,-0.005 -8e-5,-0.0085 -0.0025,-0.0129 0,-0.005 -0.0025,-0.0088 -0.0025,-0.0132 0,-0.005 -0.0025,-0.0088 -0.003,-0.01315 0,-0.004 -0.0025,-0.0084 -0.003,-0.01265 -0.0025,-0.004 -0.0025,-0.0084 -0.004,-0.01265 -0.0025,-0.004 -0.0025,-0.0084 -0.004,-0.01265 -0.0025,-0.004 -0.003,-0.0084 -0.0052,-0.0124 -0.0025,-0.004 -0.003,-0.0081 -0.005,-0.01215 -0.0025,-0.004 -0.004,-0.0082 -0.0057,-0.01215 -0.0025,-0.004 -0.004,-0.008 -0.0055,-0.0119 -0.0025,-0.004 -0.004,-0.008 -0.0064,-0.0119 -0.0025,-0.004 -0.004,-0.0078 -0.0062,-0.01135 -0.0025,-0.004 -0.0051,-0.0072 -0.0073,-0.0111 -0.0025,-0.004 -0.0051,-0.0072 -0.0072,-0.0111 -0.0025,-0.004 -0.0053,-0.0069 -0.008,-0.01085 -0.0025,-0.003 -0.0057,-0.0072 -0.0083,-0.01035 -0.0025,-0.003 -0.0056,-0.0073 -0.0082,-0.01035 -0.003,-0.003 -0.0055,-0.0063 -0.0091,-0.0098 -0.003,-0.003 -0.0055,-0.0063 -0.0091,-0.0098 -0.003,-0.003 -0.0062,-0.0063 -0.0093,-0.009 -0.003,-0.003 -0.0063,-0.0064 -0.0098,-0.009 -0.003,-0.003 -0.0064,-0.0057 -0.01035,-0.0088 -0.003,-0.003 -0.0064,-0.0053 -0.01035,-0.008 -0.004,-0.003 -0.007,-0.0056 -0.0106,-0.0083 -0.003,-0.0025 -0.0073,-0.0056 -0.01085,-0.008 -0.004,-0.0025 -0.0072,-0.005 -0.0111,-0.0069 -0.004,-0.0025 -0.0078,-0.0051 -0.01135,-0.0072 -0.004,-0.0025 -0.0082,-0.0051 -0.01215,-0.0065 -0.004,-0.0015 -0.0078,-0.004 -0.0119,-0.0054 -0.004,-0.0015 -0.0081,-0.004 -0.01215,-0.0057 -0.004,-0.0015 -0.0082,-0.004 -0.0124,-0.0054 -0.004,-0.0015 -0.0078,-0.003 -0.0119,-0.005 -0.004,-0.0015 -0.0084,-0.003 -0.01265,-0.004 -0.004,-0.0015 -0.0082,-0.0025 -0.01265,-0.004 -0.004,-0.0015 -0.0085,-0.003 -0.0129,-0.004 -0.005,-0.0015 -0.0087,-0.0025 -0.0129,-0.003 -0.004,-10e-4 -0.0085,-0.0015 -0.0129,-0.0025 -0.005,-0.001 -0.0087,-0.0015 -0.0129,-0.0025 -0.005,-5e-4 -0.0087,-0.0015 -0.0129,-0.0015 -0.005,-5e-4 -0.009,-0.0015 -0.0132,-0.0015 -0.005,-4.23e-4 -0.0091,-2.77e-4 -0.01345,-0.001 -0.005,-2.11e-4 -0.0087,-5e-4 -0.0129,-5e-4 h -0.0124 z" />
  </g>
</svg>
